<svg id="Layer_1" data-name="Layer 1" xmlns="http://www.w3.org/2000/svg" viewBox="0 0 247.16 73.91"><defs><style>.cls-1{fill:#87b840;}.cls-1,.cls-2,.cls-3,.cls-4{fill-rule:evenodd;}.cls-2{fill:#b0d239;}.cls-3{fill:#cee07c;}.cls-4,.cls-5{fill:#87aa3e;}.cls-6{fill:#58595b;}</style></defs><path class="cls-1" d="M19.86,22.58a18.49,18.49,0,0,0-7.48,1.58A13.4,13.4,0,1,1,3.13,48.93,18.48,18.48,0,1,0,19.86,22.58" transform="translate(-1.38 -0.36)"/><path class="cls-2" d="M19.27,46.75a13.39,13.39,0,0,0-6.89-22.58A18.49,18.49,0,0,0,3.13,48.93a13.4,13.4,0,0,0,16.14-2.18" transform="translate(-1.38 -0.36)"/><path class="cls-3" d="M11.53,29.14a6.79,6.79,0,1,1-6.79,6.79,6.79,6.79,0,0,1,6.79-6.79" transform="translate(-1.38 -0.36)"/><path class="cls-1" d="M15.34,12.65s7-.93,9,3.31v7.48a14.67,14.67,0,0,0-9,.47Z" transform="translate(-1.38 -0.36)"/><path class="cls-4" d="M15.33,13s5.82-.9,9,3.49V11.38h-9Z" transform="translate(-1.38 -0.36)"/><rect class="cls-5" x="13.98" y="2.91" width="8.98" height="8.31"/><path class="cls-4" d="M15.19.36h9.34a2,2,0,0,1,0,4H15.19a2,2,0,0,1,0-4" transform="translate(-1.38 -0.36)"/><path class="cls-6" d="M226.49,70.58a3.46,3.46,0,0,1,1.12.49.83.83,0,0,1,.26.63,1.18,1.18,0,0,1-.35.89,2.12,2.12,0,0,1-1.43.34,7.11,7.11,0,0,1-2.17-.3,2.65,2.65,0,0,0-.39-.1.36.36,0,0,0-.35.28,2.84,2.84,0,0,0-.21.69.37.37,0,0,0,.26.36,7.47,7.47,0,0,0,2.81.41q3.33,0,3.33-2.58a2.2,2.2,0,0,0-.49-1.56,3.72,3.72,0,0,0-1.65-.87L226,68.89a2.83,2.83,0,0,1-1.08-.51.87.87,0,0,1-.26-.66,1.09,1.09,0,0,1,.34-.86,2,2,0,0,1,1.33-.31,7.41,7.41,0,0,1,1.86.22,2.54,2.54,0,0,0,.36,0,.26.26,0,0,0,.28-.22,3.57,3.57,0,0,0,.19-.74.37.37,0,0,0-.31-.38,8.92,8.92,0,0,0-2.35-.26c-2.16,0-3.24.86-3.24,2.57a2.36,2.36,0,0,0,2,2.41Zm-12.82,1.56V67.63a1,1,0,0,1,0-.36A.58.58,0,0,1,214,67a4,4,0,0,1,2.09-.41,1.64,1.64,0,0,1,1.6.7,5.52,5.52,0,0,1,.38,2.44,4.4,4.4,0,0,1-.5,2.51,2.47,2.47,0,0,1-2.07.68,4.91,4.91,0,0,1-1.32-.16.51.51,0,0,1-.38-.21.74.74,0,0,1-.09-.44m-1.55.6a1.61,1.61,0,0,0,.12.72.91.91,0,0,0,.59.45,8,8,0,0,0,2.6.36,7.24,7.24,0,0,0,1.83-.19,2.92,2.92,0,0,0,1.27-.69,2.89,2.89,0,0,0,.8-1.43,8.86,8.86,0,0,0,.25-2.33,6,6,0,0,0-.72-3.37,2.6,2.6,0,0,0-2.28-1,4.86,4.86,0,0,0-2.91.72V61.57q0-.42-.36-.42h-.83q-.36,0-.36.42Zm-6.18-2.52v1.66a1.79,1.79,0,0,1-.07.58.61.61,0,0,1-.33.3,5,5,0,0,1-1.78.25,2,2,0,0,1-1.41-.38,1.59,1.59,0,0,1-.38-1.15,1.08,1.08,0,0,1,.42-1,3.77,3.77,0,0,1,1.93-.33c.57,0,1.11,0,1.62.07m1.53,2.4V68.1a3.26,3.26,0,0,0-.57-2.26,3.71,3.71,0,0,0-2.57-.64,10.16,10.16,0,0,0-2.86.42.35.35,0,0,0-.31.36,2.5,2.5,0,0,0,.12.69.31.31,0,0,0,.3.24l.63-.12a9.24,9.24,0,0,1,1.88-.21c1,0,1.57.22,1.73.66a3.18,3.18,0,0,1,.12,1.07V69c-.4,0-1-.07-1.8-.07a5.3,5.3,0,0,0-2.68.51,2.22,2.22,0,0,0-1,2.06,2.88,2.88,0,0,0,.67,2,3.14,3.14,0,0,0,2.42.74,7.89,7.89,0,0,0,3.24-.53,1.13,1.13,0,0,0,.5-.4,1.2,1.2,0,0,0,.17-.72M196,71.41V61.55c0-.27-.12-.4-.35-.4h-.82c-.26,0-.38.13-.38.4v10a3.17,3.17,0,0,0,.29,1.6,2.39,2.39,0,0,0,2.22.92c.25,0,.39-.09.43-.26a2.22,2.22,0,0,0,.07-.64.31.31,0,0,0-.29-.34,1.39,1.39,0,0,1-1-.45,1.93,1.93,0,0,1-.19-1m-7.29-1.65a7.7,7.7,0,0,1-.14,1.67,1.91,1.91,0,0,1-.45,1,1.44,1.44,0,0,1-.71.43,4,4,0,0,1-1,.11,3,3,0,0,1-1.31-.23,1.59,1.59,0,0,1-.71-.94,6.52,6.52,0,0,1-.25-2.07,4,4,0,0,1,.55-2.48,2.22,2.22,0,0,1,1.78-.64,2.18,2.18,0,0,1,1.8.61,4.71,4.71,0,0,1,.47,2.58m1.55-.09a10.59,10.59,0,0,0-.21-2.33,2.58,2.58,0,0,0-.73-1.36,2.49,2.49,0,0,0-1.15-.62,7.71,7.71,0,0,0-1.7-.16,6.07,6.07,0,0,0-1.59.19,3.3,3.3,0,0,0-1.23.67,2.81,2.81,0,0,0-.83,1.38,7.79,7.79,0,0,0-.28,2.28,7.48,7.48,0,0,0,.42,2.81,2.49,2.49,0,0,0,1.22,1.37,5.17,5.17,0,0,0,2.17.37,3.93,3.93,0,0,0,3-1c.6-.66.89-1.86.89-3.62m-17.54,4v-6a.82.82,0,0,1,.1-.48.93.93,0,0,1,.33-.24,5.3,5.3,0,0,1,2.12-.35,2.75,2.75,0,0,1,1,.14.71.71,0,0,1,.42.46,3.92,3.92,0,0,1,.11,1.09v5.4q0,.39.36.39H178q.36,0,.36-.39V68a5.74,5.74,0,0,0-.17-1.69,1.42,1.42,0,0,0-.75-.79,4,4,0,0,0-1.68-.26,12.64,12.64,0,0,0-2.13.19,7.05,7.05,0,0,0-1.89.53,1,1,0,0,0-.57,1v6.71q0,.39.36.39h.81a.34.34,0,0,0,.38-.39m-11.87,0V67.76a1.22,1.22,0,0,1,.09-.54.73.73,0,0,1,.34-.26,5.85,5.85,0,0,1,2.12-.36,2.46,2.46,0,0,1,1,.15.77.77,0,0,1,.43.47,3.71,3.71,0,0,1,.11,1.07v5.4q0,.39.36.39h.83q.36,0,.36-.39V68a5.74,5.74,0,0,0-.17-1.69,1.42,1.42,0,0,0-.75-.79,3.89,3.89,0,0,0-1.67-.26,9.7,9.7,0,0,0-1.71.17,3.29,3.29,0,0,0-1.34.5V61.55q0-.45-.36-.45h-.83q-.36,0-.36.45V73.69q0,.39.36.39h.81a.34.34,0,0,0,.38-.39m-10.34-4a4.54,4.54,0,0,1,.49-2.36,2.11,2.11,0,0,1,2-.79,7.3,7.3,0,0,1,1.4.13,2.11,2.11,0,0,0,.48.07.27.27,0,0,0,.29-.22,3.35,3.35,0,0,0,.16-.78.33.33,0,0,0-.29-.34,8,8,0,0,0-2-.23,3.8,3.8,0,0,0-3.11,1.12,5.5,5.5,0,0,0-.93,3.56,4.92,4.92,0,0,0,.93,3.4,3.61,3.61,0,0,0,2.78,1,7.55,7.55,0,0,0,2.5-.36.37.37,0,0,0,.28-.38,5.48,5.48,0,0,0-.16-.67.23.23,0,0,0-.24-.21l-.47.09a8.14,8.14,0,0,1-1.77.19,1.9,1.9,0,0,1-1.8-.79,4.75,4.75,0,0,1-.48-2.42M139.66,69a3,3,0,0,1,.55-1.83,2.15,2.15,0,0,1,1.72-.62,1.91,1.91,0,0,1,1.53.5,2.47,2.47,0,0,1,.41,1.56,3.25,3.25,0,0,1,0,.39Zm0,1.24h5.21a.57.57,0,0,0,.36-.1.73.73,0,0,0,.14-.53c0-.59,0-1.08,0-1.46a6.34,6.34,0,0,0-.24-1.18,2.25,2.25,0,0,0-.55-1,2.51,2.51,0,0,0-1-.56A4.79,4.79,0,0,0,142,65.2a3.83,3.83,0,0,0-3,1.08,5.07,5.07,0,0,0-1,3.49,5.21,5.21,0,0,0,.91,3.44,3.9,3.9,0,0,0,3.1,1.06,7.34,7.34,0,0,0,2.81-.45c.19-.08.28-.19.28-.34a2,2,0,0,0-.17-.67.31.31,0,0,0-.3-.21l-.44.09a7.3,7.3,0,0,1-2,.24,2.24,2.24,0,0,1-2.61-2.73m-6.87.56v-4h1.83a.35.35,0,0,0,.4-.38v-.6c0-.24-.14-.37-.42-.37h-1.81V63.53c0-.29-.11-.43-.33-.43h-.79c-.21,0-.32.14-.34.43,0,.9-.06,1.54-.06,1.91H130.2a.34.34,0,0,0-.38.38v.61a.32.32,0,0,0,.35.36h1.05v3.9a4.26,4.26,0,0,0,.57,2.62,2.15,2.15,0,0,0,1.08.69,7.59,7.59,0,0,0,1.88.19.37.37,0,0,0,.42-.31q0-.39,0-.66a.31.31,0,0,0-.33-.36c-1,0-1.58-.25-1.81-.6a2.88,2.88,0,0,1-.29-1.5" transform="translate(-1.38 -0.36)"/><path class="cls-6" d="M247.2,54.39c.89,0,1.34-.36,1.34-1.08V50.7c0-.89-.43-1.33-1.27-1.33H228l18.43-19.26A5.53,5.53,0,0,0,248,26.24c0-2.38-1.36-3.56-4.07-3.56H224.2a1.23,1.23,0,0,0-1.4,1.39v2.42c0,.8.49,1.21,1.46,1.21h17.22L223.05,47.33a5,5,0,0,0-1.33,3.56q0,3.49,3.75,3.5ZM187.66,44a21.28,21.28,0,0,0,.83,7q1.59,4.2,10.23,4.19,8.84,0,13.35-2c1.39-.63,2.09-1.93,2.09-3.88V24c0-1-.44-1.46-1.33-1.46h-3c-.93,0-1.4.49-1.4,1.46V46.57a3.47,3.47,0,0,1-.38,2,3,3,0,0,1-1.21.83,23.39,23.39,0,0,1-7,.82q-5,0-5.91-2.35a12.87,12.87,0,0,1-.51-4.57V24c0-1-.44-1.46-1.33-1.46H189c-.89,0-1.34.49-1.34,1.46Zm-50.7,9V31.26a4.1,4.1,0,0,1,.31-2.1,3.56,3.56,0,0,1,1.34-.95,18.59,18.59,0,0,1,7.31-1.27,8.28,8.28,0,0,1,3.46.5,3,3,0,0,1,1.43,1.72,11.46,11.46,0,0,1,.44,3.81V53.05c0,1,.45,1.47,1.34,1.47h3c.89,0,1.33-.49,1.33-1.47V33c0-.17,0-.59,0-1.24s0-1.05,0-1.18a2.49,2.49,0,0,1,.32-1.33,2.93,2.93,0,0,1,1.27-1,18.6,18.6,0,0,1,7.31-1.39,8.74,8.74,0,0,1,3.52.5,3,3,0,0,1,1.5,1.72,14.91,14.91,0,0,1,.38,4V53.05c0,1,.44,1.47,1.33,1.47h3.05c.85,0,1.27-.49,1.27-1.47V32a21.53,21.53,0,0,0-.57-6.23,5.31,5.31,0,0,0-2.67-2.92,13.77,13.77,0,0,0-5.91-1q-8.9,0-12.45,3.05-1.9-3-7.82-3.05a34.41,34.41,0,0,0-14.17,2.74c-1.36.59-2,1.8-2,3.62V53.05c0,1,.44,1.47,1.33,1.47h3c.93,0,1.4-.49,1.4-1.47M121,12.38q0-3.61-3.43-3.62t-3.43,3.69q0,3.56,3.43,3.55c2.29,0,3.43-1.2,3.43-3.62m-.51,40.67V24c0-1-.44-1.46-1.33-1.46h-3c-.89,0-1.34.51-1.34,1.52v29c0,1,.45,1.47,1.34,1.47h3c.93,0,1.4-.49,1.4-1.47M92.74,41.87l8.19,11.44a2.68,2.68,0,0,0,2,1.21,20.7,20.7,0,0,0,4.06-.2,1,1,0,0,0,.64-.88,2.63,2.63,0,0,0-.7-1.53L96.68,38.06l9.46-12.84a3.38,3.38,0,0,0,.77-1.65.86.86,0,0,0-.57-.83,22.43,22.43,0,0,0-3.82-.19,2.87,2.87,0,0,0-2.09,1.4L93.05,34.24,85.74,24.07a8.55,8.55,0,0,0-1.11-1.23,1.51,1.51,0,0,0-1-.29,23.5,23.5,0,0,0-4.13.25.76.76,0,0,0-.7.83,3,3,0,0,0,.82,1.65l9.41,12.84L78.82,51.85a3,3,0,0,0-.76,1.59.9.9,0,0,0,.76,1c.85.08,2.07.13,3.68.13a2.65,2.65,0,0,0,2-1.28Zm-40-6.23q.12-4.44,2-6.74t6.36-2.28q4.13,0,5.62,1.84c1,1.23,1.49,3.13,1.49,5.72a12.34,12.34,0,0,1-.06,1.46Zm-.07,4.58H71.9a2.18,2.18,0,0,0,1.33-.38,2.69,2.69,0,0,0,.51-2c0-2.17-.06-4-.19-5.37a21.39,21.39,0,0,0-.89-4.36,8.2,8.2,0,0,0-2-3.49,9.57,9.57,0,0,0-3.59-2.07,17.21,17.21,0,0,0-5.6-.79q-7.36,0-11,4T46.86,38.63q0,8.76,3.37,12.68t11.43,3.9A27.18,27.18,0,0,0,72,53.56a1.4,1.4,0,0,0,1-1.27,7.18,7.18,0,0,0-.64-2.48,1.1,1.1,0,0,0-1.08-.76,13.45,13.45,0,0,0-1.65.32,26.68,26.68,0,0,1-7.37.89c-3.26,0-5.67-.69-7.21-2.07s-2.34-4-2.39-8" transform="translate(-1.38 -0.36)"/></svg>